<?xml version="1.0" encoding="UTF-8"?>
<svg xmlns="http://www.w3.org/2000/svg" version="1.1" viewBox="0 0 50 38.3">
  <!-- Generator: Adobe Illustrator 28.6.0, SVG Export Plug-In . SVG Version: 1.2.0 Build 709)  -->
  <g>
    <g id="icon-switch">
      <path d="M11.5,8.6c-.8-.8-.8-2.2,0-3h0c7.5-7.5,19.6-7.5,27,0,3.2,3.2,5.2,7.4,5.6,12l2.3-2.3c.8-.8,2.2-.8,3,0s.8,2.2,0,3l-6,6c-.8.8-2.2.8-3,0h0s-6-6-6-6c-.8-.8-.8-2.2,0-3s2.2-.8,3,0l2.5,2.5c-.8-8.2-8-14.2-16.2-13.4-3.5.3-6.7,1.9-9.1,4.3-.8.8-2.2.8-3,0h0ZM38.5,32.7c-7.5,7.5-19.6,7.5-27,0-3.2-3.2-5.2-7.4-5.6-12l-2.3,2.3c-.8.8-2.2.8-3,0s-.8-2.2,0-3l6-6c.8-.8,2.2-.8,3,0h0s6,6,6,6c.8.8.8,2.2,0,3s-2.2.8-3,0l-2.5-2.5c.8,8.2,8,14.2,16.2,13.4,3.5-.3,6.7-1.9,9.1-4.3.8-.8,2.2-.8,3,0s.8,2.2,0,3Z" fill="#2b77cc"/>
    </g>
  </g>
</svg>